# xmcd
#
# Track frame offsets:
#	150
#	11758
#	23851
#	33861
#	47711
#	59156
#	71768
#	82147
#	90898
#	102058
#	113988
#	127816
#	138871
#	149173
#	159995
#	172703
#	184119
#	193366
#	205603
#	216960
#	227355
#	237268
#
# Disc length: 3309 seconds
#
# Revision: 1
# Processed by: cddbd v1.5.1PL0 Copyright (c) Steve Scherf et al.
# Submitted via: audiograbber 1.82.02
#
DISCID=2e0ceb16
DTITLE=Lefty Frizzell - Country Favorites
DYEAR=1900
DGENRE=Country
TTITLE0=A King Without A Queen
TTITLE1=My Babies Just Like Money
TTITLE2=Honey, Baby Hurry
TTITLE3=Run Em' Off
TTITLE4=I Love You Mostly
TTITLE5=You're Just Mine
TTITLE6=Give Me More Of Your Kisses
TTITLE7=From An Angel To A Devil
TTITLE8=Sweet Lies
TTITLE9=Two Hearts Broken Now
TTITLE10=Saginaw Michigan
TTITLE11=Stranger
TTITLE12=What Good Bid You Get
TTITLE13=There's No Food In This House
TTITLE14=When It Rains The Blues
TTITLE15=Hello To Him
TTITLE16=James River
TTITLE17=I'm Not The Man I'm Supposed To Be
TTITLE18=Through The Eyes Of Fool
TTITLE19=I Was Coming Home To You
TTITLE20=Don't Let Her See Me Cry
TTITLE21=Lonely Heart
EXTD=
EXTT0=
EXTT1=
EXTT2=
EXTT3=
EXTT4=
EXTT5=
EXTT6=
EXTT7=
EXTT8=
EXTT9=
EXTT10=
EXTT11=
EXTT12=
EXTT13=
EXTT14=
EXTT15=
EXTT16=
EXTT17=
EXTT18=
EXTT19=
EXTT20=
EXTT21=
PLAYORDER=
